<svg id="b" version="1.1" viewBox="0 0 290.92 43.5" xml:space="preserve" xmlns="http://www.w3.org/2000/svg"><defs><clipPath id="a"><rect x="-7.7209e-9" y="-7.7209e-9" width="10.583" height="10.583" ry="1.7961" stroke-dasharray="0.520015, 3.1201" stroke-linecap="round" stroke-linejoin="round" stroke-miterlimit="20" stroke-width=".52002" style="paint-order:markers fill stroke"/></clipPath></defs><g id="c"><g fill="#fff"><path transform="translate(0,1.5525)" d="m18.01 35.63-12.36-7.13c-0.15-0.09-0.25-0.25-0.25-0.43v-11.02c0-0.19 0.21-0.31 0.37-0.22l14.35 8.28c0.2 0.12 0.45-0.03 0.45-0.26v-5.37c0-0.21-0.11-0.41-0.3-0.52l-17.26-9.96c-0.15-0.09-0.35-0.09-0.5 0l-2.26 1.31c-0.15 0.09-0.25 0.25-0.25 0.43v20.47c0 0.18 0.1 0.34 0.25 0.43l17.73 10.24c0.15 0.09 0.35 0.09 0.5 0l14.89-8.6c0.2-0.12 0.2-0.4 0-0.52l-4.64-2.68c-0.19-0.11-0.41-0.11-0.6 0l-9.61 5.55c-0.15 0.09-0.35 0.09-0.5 0z"/><path transform="translate(0,1.5525)" d="m36.21 10.3-17.73-10.23c-0.15-0.09-0.35-0.09-0.5 0l-9.37 5.41c-0.2 0.12-0.2 0.4 0 0.52l4.6 2.66c0.19 0.11 0.41 0.11 0.6 0l4.2-2.42c0.15-0.09 0.35-0.09 0.5 0l12.36 7.13c0.15 0.09 0.25 0.25 0.25 0.43v11.07c0 0.21 0.11 0.41 0.3 0.52l4.6 2.65c0.2 0.12 0.45-0.03 0.45-0.26v-17.04c0-0.18-0.1-0.34-0.25-0.43z"/></g><text x="40.092655" y="40.680084" fill="#ffffff" font-family="Geist" font-size="60px" font-weight="300" letter-spacing="-4px" stroke-dasharray="0.5, 0.5" stroke-linecap="square" stroke-miterlimit="0" stroke-width=".5" word-spacing="0px" style="font-variant-caps:normal;font-variant-east-asian:normal;font-variant-ligatures:normal;font-variant-numeric:normal;line-height:114.286px;paint-order:markers fill stroke" xml:space="preserve"><tspan x="40.092655" y="40.680084">+</tspan></text><g transform="matrix(1.1619 0 0 1.1619 -145 -7.0431)" fill="#fff"><path transform="matrix(-.12251 0 0 .12251 224.65 8.5)" d="m285.8 26.3-123.4 52.7-1.4 136.4 124.8 40.2z" style="font-variation-settings:'wght' 500"/><path transform="matrix(-.12251 0 0 .12251 224.65 8.5)" d="m80.428 18.767 1.3405 252.19 155.03 14.745-121-38.9-0.8-192.8 121.6-54z" style="font-variation-settings:'wght' 500"/><path transform="matrix(3.4111 0 0 3.4111 339.08 7.4)" d="m-2e-7 -1e-7v10.583h10.583v-10.583zm5.3537 1.3327 4.177 3.4039-0.92398 1.1338-4.177-3.4034zm-1.3627 1.6728 2.6758 2.1802c0.31815 0.25925 0.53134 0.55951 0.63975 0.90124 0.10816 0.33926 0.11522 0.6961 0.02119 1.0697-0.09539 0.37249-0.28843 0.73744-0.57981 1.095-0.29359 0.3603-0.61356 0.62459-0.95911 0.79323-0.34692 0.16753-0.6975 0.23276-1.0516 0.19534-0.35437-0.03989-0.69057-0.18982-1.0087-0.44907l-2.6758-2.1802 0.92397-1.1338 2.5781 2.1006c0.12916 0.10525 0.26801 0.1709 0.41651 0.19689 0.14714 0.02488 0.29034 0.01016 0.42943-0.04393 0.1402-0.05544 0.26268-0.14782 0.36794-0.27699 0.10636-0.13052 0.17201-0.26937 0.19689-0.41651s0.01016-0.29034-0.04393-0.42943c-0.05544-0.1402-0.14782-0.26268-0.27699-0.36794l-2.5776-2.1006z" clip-path="url(#a)" stroke-miterlimit="20" stroke-width="0" style="paint-order:markers fill stroke"/><path d="m218.63 42.9v-26.5h3.7l0.15 4.9q1.35-4.9 6.3-4.9h2.6v4h-2.55q-6 0-6 6.5v16zm20.1 0.6q-4.1 0-6.55-1.9-2.4-1.9-2.4-5.3t2-5.35 6.35-2.75l9.4-1.75q0-6.65-6.3-6.65-2.75 0-4.35 1.25-1.6 1.2-2.2 3.5l-4.45-0.35q0.75-3.75 3.6-6.05 2.9-2.35 7.4-2.35 5.1 0 7.8 2.9 2.7 2.85 2.7 7.9v10.95q0 1.65 1.4 1.65h1.05v3.7q-0.6 0.1-1.6 0.1-2.4 0-3.6-0.95-1.15-1-1.4-3.25-1 2.05-3.45 3.4-2.45 1.3-5.4 1.3zm0.4-3.7q4 0 6.2-2.25t2.2-5.55v-1.9l-8.6 1.6q-2.7 0.5-3.75 1.55-1 1-1 2.65 0 1.85 1.3 2.9 1.35 1 3.65 1zm26.05 3.7q-3.7 0-6.45-1.7-2.7-1.7-4.2-4.8-1.5-3.15-1.5-7.35t1.5-7.3 4.2-4.8q2.75-1.75 6.45-1.75 4.6 0 7.6 2.4 3 2.35 3.65 6.8l-4.4 0.3q-0.45-2.65-2.3-4.05-1.85-1.45-4.55-1.45-3.65 0-5.7 2.65-2.05 2.6-2.05 7.2t2.05 7.25q2.05 2.6 5.7 2.6 2.7 0 4.55-1.5t2.3-4.5l4.4 0.3q-0.65 4.4-3.65 7.05t-7.6 2.65zm12.45-0.6v-35.5h4.2v23.25l12.9-14.25h5.6l-10.45 11.25 10.9 15.25h-5.1l-8.65-12.4-5.2 5.5v6.9zm33.35 0.6q-3.75 0-6.5-1.7-2.7-1.7-4.2-4.8-1.45-3.15-1.45-7.35t1.45-7.3q1.5-3.1 4.15-4.8 2.7-1.75 6.35-1.75 3.45 0 6.1 1.65 2.65 1.6 4.1 4.7 1.5 3.1 1.5 7.55v1.25h-19.25q0.25 4.25 2.25 6.4 2.05 2.15 5.5 2.15 2.6 0 4.25-1.2 1.7-1.25 2.35-3.25l4.5 0.35q-1.05 3.55-4 5.85-2.9 2.25-7.1 2.25zm-7.75-16.25h14.65q-0.3-3.85-2.25-5.65-1.9-1.8-4.85-1.8-3.05 0-5.05 1.9-1.95 1.85-2.5 5.55zm29.65 15.65q-3.6 0-5.35-1.65-1.7-1.65-1.7-5.15v-16h-3.9v-3.7h3.9v-6.2h4.2v6.2h7.05v3.7h-7.05v15.9q0 1.8 0.8 2.5t2.45 0.7h3.8v3.7z" stroke-dasharray="0.5, 0.5" stroke-linecap="square" stroke-miterlimit="0" stroke-width=".5" style="paint-order:markers fill stroke" aria-label="racket"/></g></g></svg>
